<svg xmlns="http://www.w3.org/2000/svg" viewBox="0 0 800 162" enable-background="new 0 0 800 162"><style type="text/css">.st0{display:none;} .st1{display:inline;} .st2{fill:#FFFFFF;} .st3{fill:none;stroke:#9882CE;stroke-width:4;stroke-miterlimit:10;} .st4{fill:none;stroke:#404040;stroke-width:4;stroke-linecap:round;stroke-linejoin:round;stroke-miterlimit:10;} .st5{fill:#B3E3FF;stroke:#404040;stroke-width:4;stroke-miterlimit:10;} .st6{fill:#FFFFFF;stroke:#59AFE1;stroke-width:4;stroke-miterlimit:10;} .st7{fill:#FFFFFF;stroke:#404040;stroke-width:4;stroke-miterlimit:10;} .st8{fill:#B18BE8;stroke:#404040;stroke-width:4;stroke-linecap:round;stroke-linejoin:round;stroke-miterlimit:10;} .st9{fill:#404040;} .st10{fill:#CCCCCC;stroke:#404040;stroke-width:4;stroke-miterlimit:10;} .st11{fill:#FFFFFF;stroke:#404040;stroke-width:4;stroke-linecap:round;stroke-linejoin:round;stroke-miterlimit:10;} .st12{fill:#999999;} .st13{fill:#B3E3FF;stroke:#404040;stroke-width:4;stroke-linejoin:round;stroke-miterlimit:10;} .st14{fill:#59AFE1;stroke:#404040;stroke-width:4;stroke-linejoin:round;stroke-miterlimit:10;} .st15{fill:none;stroke:#CCCCCC;stroke-linecap:round;stroke-linejoin:round;stroke-miterlimit:10;} .st16{fill:none;stroke:#404040;stroke-width:4;stroke-miterlimit:10;} .st17{fill:#B18BE8;stroke:#404040;stroke-width:4;stroke-miterlimit:10;} .st18{fill:#FFFFFF;stroke:#6693ED;stroke-width:4;stroke-miterlimit:10;} .st19{fill:#4ED1A1;stroke:#404040;stroke-width:4;stroke-miterlimit:10;} .st20{fill:none;stroke:#59AFE1;stroke-width:4;stroke-linecap:round;stroke-linejoin:round;stroke-miterlimit:10;} .st21{fill:none;stroke:#59AFE1;stroke-width:4;stroke-miterlimit:10;} .st22{fill:none;stroke:#CCCCCC;stroke-width:4;stroke-linecap:round;stroke-linejoin:round;stroke-miterlimit:10;} .st23{fill:#FFFFFF;stroke:#CCCCCC;stroke-width:4;stroke-linecap:round;stroke-linejoin:round;stroke-miterlimit:10;} .st24{fill:#FFFFFF;stroke:#404040;stroke-width:4;stroke-linejoin:round;stroke-miterlimit:10;} .st25{fill:#CCCCCC;} .st26{fill:#4ED1A1;stroke:#404040;stroke-width:4;stroke-linecap:round;stroke-linejoin:round;stroke-miterlimit:10;} .st27{fill:#4CD3D6;stroke:#404040;stroke-width:4;stroke-linejoin:round;stroke-miterlimit:10;} .st28{fill:#B3E3FF;stroke:#404040;stroke-width:4;stroke-linecap:round;stroke-linejoin:round;stroke-miterlimit:10;}</style><path class="st4" d="M419.1,133.9c-5.6,2.9-12.1,4.6-18.9,4.6c-7,0-13.6-1.8-19.4-4.8M419.1,121.9c-5.6,2.9-12.1,4.6-18.9,4.6c-7,0-13.6-1.8-19.4-4.8"/><path class="st4" d="M395.5,111.1V78.1c0-5-4.1-9-9.1-9c-5,0-9.1,4-9.1,9c0,5,4.1,9,9.1,9h27.2c5,0,9.1-4,9.1-9c0-5-4.1-9-9.1-9 c-5,0-9.1,4-9.1,9v32.9H395.5z"/><ellipse class="st4" cx="400" cy="71.5" rx="40.9" ry="40.5"/><path class="st4" d="M427.5,101.5c-3.3,3.2-8.4,5.9-8.4,10.8v22.1c0,12.4-6.5,20.7-19.1,20.7c-12.5,0-19.1-8.3-19.1-20.7l0-22.1 c0-5-4.2-7.2-8-10.4"/><path class="st20" d="M351.8,23.7l10.3,10.2L351.8,23.7zM437.9,33.9l10.3-10.2L437.9,33.9zM331.9,71.5h14.5H331.9zM453.6,71.5h14.5H453.6zM400,18.4V4V18.4z"/></svg>